<svg width="44" height="43" viewBox="0 0 44 43" fill="none" xmlns="http://www.w3.org/2000/svg">
<path d="M23.3609 23.116C25.9508 16.5327 29.7907 15.7247 34.1993 15.4022L34.202 15.4016C34.381 15.3791 34.5286 15.2756 34.6449 15.0911C34.675 15.0355 34.6909 14.9734 34.6913 14.9101C34.7058 14.7733 34.6676 14.6358 34.5843 14.525C34.5009 14.4141 34.3785 14.3379 34.2413 14.3116C33.9878 14.2679 33.6611 14.1588 33.2361 14.0403L33.1831 14.0247C29.867 13.0523 22.275 10.826 16.8327 20.2294C16.7916 20.2451 16.7791 20.2731 16.7505 20.2607L13.9246 19.0264C13.6961 18.9266 13.4336 18.9797 13.2318 19.1265C13.0586 19.2857 12.9049 19.5541 12.9602 19.8131C12.9602 19.8131 15.6262 29.8646 15.6456 29.946C15.665 30.0274 15.7033 30.1033 15.7575 30.1677C15.8117 30.2322 15.8804 30.2834 15.958 30.3173C16.0356 30.3511 16.12 30.3668 16.2046 30.363C16.2892 30.3592 16.3717 30.336 16.4454 30.2953L26.2403 25.615C26.3563 25.5816 26.4583 25.5123 26.5313 25.4174C26.6042 25.3225 26.6443 25.2069 26.6457 25.0875C26.644 24.7848 26.4334 24.4915 26.2049 24.3917L23.3769 23.1566L23.3609 23.116Z" stroke="#FFFB00" stroke-linecap="round" stroke-linejoin="round"/>
</svg>
