<svg aria-hidden="true" style="position: absolute; width: 0; height: 0; overflow: hidden;" version="1.1" xmlns="http://www.w3.org/2000/svg" xmlns:xlink="http://www.w3.org/1999/xlink">
<defs>
<symbol id="icon-table-alternative" viewBox="0 0 32 32" width="25" height="25">
<path stroke-linejoin="miter" stroke-linecap="butt" stroke-miterlimit="4" stroke-width="1.2308" d="M18.068 0.615h-4.298c-7.92-0-11.292-0-12.532 4.744-0.191 0.73 0.395 1.41 1.15 1.41h27.224c0.755 0 1.34-0.68 1.15-1.41-1.24-4.744-4.611-4.744-12.532-4.744h-0.162z"></path>
<path stroke-linejoin="miter" stroke-linecap="butt" stroke-miterlimit="4" stroke-width="1.2308" d="M18.068 31.385h-4.298c-7.92 0-11.292 0-12.532-4.744-0.191-0.73 0.395-1.41 1.15-1.41h27.224c0.755 0 1.34 0.68 1.15 1.41-1.24 4.744-4.611 4.744-12.532 4.744h-0.162z"></path>
<path stroke-linejoin="miter" stroke-linecap="butt" stroke-miterlimit="4" stroke-width="1.2308" d="M0.615 12.923h30.769v6.154h-30.769v-6.154z"></path>
</symbol>
<symbol id="icon-close" viewBox="0 0 32 32">
<path fill="none" stroke-linejoin="miter" stroke-linecap="round" stroke-miterlimit="4" stroke-width="2.6667" stroke="#fff" style="stroke: var(--color1, #fff)" d="M28.331 3.821l-12.331 12.331M16 16.152l-12.331 12.331M16 16.152l12.331 12.331M16 16.152l-12.331-12.331"></path>
</symbol>
<symbol id="icon-controlsList" viewBox="0 0 32 32">
<path fill="none" stroke="#fff" style="stroke: var(--color1, #fff)" stroke-linejoin="round" stroke-linecap="round" stroke-miterlimit="4" stroke-width="1.28" d="M22 13l-6 6-6-6"></path>
</symbol>
<symbol id="icon-Line-4" viewBox="0 0 60 32">
<path stroke-linejoin="miter" stroke-linecap="butt" stroke-miterlimit="4" stroke-width="0.7385" d="M0.246 31.508c29.71-6.569 35.446-31.015 59.097-31.015"></path>
</symbol>
<symbol id="icon-Line-3" viewBox="0 0 48 32">
<path stroke-linejoin="miter" stroke-linecap="butt" stroke-miterlimit="4" stroke-width="0.6316" d="M0.229 0.949c42.001-4.203 33.188 13.596 47.455 30.84"></path>
</symbol>
<symbol id="icon-Line-2" viewBox="0 0 59 32">
<path stroke-linejoin="miter" stroke-linecap="butt" stroke-miterlimit="4" stroke-width="0.7059" d="M0.095 31.513c28.399-6.279 48.989-15.442 58.041-31.278"></path>
</symbol>
<symbol id="icon-Line-1" viewBox="0 0 119 32">
<path stroke-linejoin="miter" stroke-linecap="butt" stroke-miterlimit="4" stroke-width="0.932" d="M0.338 2.332c61.983-6.203 96.977 3.753 118.031 29.201"></path>
</symbol>
<symbol id="icon-main-control" viewBox="0 0 32 32">
<path fill="none" stroke="#d59800" style="stroke: var(--color2, #d59800)" stroke-linejoin="round" stroke-linecap="round" stroke-miterlimit="4" stroke-width="2.65" d="M19 22l-6-6 6-6"></path>
</symbol>
<symbol id="icon-Line-mobile" viewBox="0 0 55 32">
<path stroke-linejoin="miter" stroke-linecap="butt" stroke-miterlimit="4" stroke-width="0.6809" d="M48.937 0.425c30.776 31.163-68.967 3.425-44.559 31.201"></path>
</symbol>
<symbol id="icon-ellipse" viewBox="0 0 32 32">
<path d="M32 16c0 8.837-7.163 16-16 16s-16-7.163-16-16c0-8.837 7.163-16 16-16s16 7.163 16 16z"></path>
</symbol>
</defs>
</svg>
