<svg aria-hidden="true" style="position: absolute; width: 0; height: 0; overflow: hidden;" version="1.1" xmlns="http://www.w3.org/2000/svg" xmlns:xlink="http://www.w3.org/1999/xlink">
<defs>
<symbol id="icon-table-alternative" viewBox="0 0 32 32" width="25" height="25">
<path stroke-linejoin="miter" stroke-linecap="butt" stroke-miterlimit="4" stroke-width="1.2308" d="M18.068 0.615h-4.298c-7.92-0-11.292-0-12.532 4.744-0.191 0.73 0.395 1.41 1.15 1.41h27.224c0.755 0 1.34-0.68 1.15-1.41-1.24-4.744-4.611-4.744-12.532-4.744h-0.162z"></path>
<path stroke-linejoin="miter" stroke-linecap="butt" stroke-miterlimit="4" stroke-width="1.2308" d="M18.068 31.385h-4.298c-7.92 0-11.292 0-12.532-4.744-0.191-0.73 0.395-1.41 1.15-1.41h27.224c0.755 0 1.34 0.68 1.15 1.41-1.24 4.744-4.611 4.744-12.532 4.744h-0.162z"></path>
<path stroke-linejoin="miter" stroke-linecap="butt" stroke-miterlimit="4" stroke-width="1.2308" d="M0.615 12.923h30.769v6.154h-30.769v-6.154z"></path>
</symbol>
<symbol id="icon-close" viewBox="0 0 32 32">
<path fill="none" stroke-linejoin="miter" stroke-linecap="round" stroke-miterlimit="4" stroke-width="2.6667" stroke="#fff" style="stroke: var(--color1, #fff)" d="M28.331 3.821l-12.331 12.331M16 16.152l-12.331 12.331M16 16.152l12.331 12.331M16 16.152l-12.331-12.331"></path>
</symbol>
<symbol id="icon-controlsList" viewBox="0 0 32 32">
<path fill="none" stroke="#fff" style="stroke: var(--color1, #fff)" stroke-linejoin="round" stroke-linecap="round" stroke-miterlimit="4" stroke-width="1.28" d="M22 13l-6 6-6-6"></path>
</symbol>
<symbol id="icon-Line-4" viewBox="0 0 60 32">
  <path fill="none" stroke="#000000" stroke-linejoin="miter" stroke-linecap="butt" stroke-miterlimit="4" stroke-width="0.7385" d="M0.246 31.508c29.71-6.569 35.446-31.015 59.097-31.015"></path>
</symbol>
<symbol id="icon-Line-3" viewBox="0 0 48 32">
  <path fill="none" stroke="#000000" stroke-linejoin="miter" stroke-linecap="butt" stroke-miterlimit="4" stroke-width="0.6316" d="M0.229 0.949c42.001-4.203 33.188 13.596 47.455 30.84"></path>
</symbol>
<symbol id="icon-Line-2" viewBox="0 0 59 32">
  <path fill="none" stroke="#000000" stroke-linejoin="miter" stroke-linecap="butt" stroke-miterlimit="4" stroke-width="0.7059" d="M0.095 31.513c28.399-6.279 48.989-15.442 58.041-31.278"></path>
</symbol>
<symbol id="icon-Line-1" viewBox="0 0 119 32">
  <path fill="none" stroke="#000000" stroke-linejoin="miter" stroke-linecap="butt" stroke-miterlimit="4" stroke-width="0.932" d="M0.338 2.332c61.983-6.203 96.977 3.753 118.031 29.201"></path>
</symbol>
<symbol id="icon-main-control" viewBox="0 0 32 32">
<path fill="none" stroke="#d59800" style="stroke: var(--color2, #d59800)" stroke-linejoin="round" stroke-linecap="round" stroke-miterlimit="4" stroke-width="2.65" d="M19 22l-6-6 6-6"></path>
</symbol>
<symbol id="icon-Line-mobile" viewBox="0 0 55 32">
<path stroke-linejoin="miter" stroke-linecap="butt" stroke-miterlimit="4" stroke-width="0.6809" d="M48.937 0.425c30.776 31.163-68.967 3.425-44.559 31.201"></path>
</symbol>
<symbol id="icon-ellipse" viewBox="0 0 32 32">
<path d="M32 16c0 8.837-7.163 16-16 16s-16-7.163-16-16c0-8.837 7.163-16 16-16s16 7.163 16 16z"></path>
</symbol>
<symbol id="icon-Switch" viewBox="0 0 33 32">
<path fill="none" stroke="#d59800" style="stroke: var(--color1, #d59800)" stroke-linejoin="miter" stroke-linecap="butt" stroke-miterlimit="4" stroke-width="1.1474" d="M1.996 14.222c0-7.538 6.111-13.649 13.649-13.649s13.649 6.111 13.649 13.649c0 7.538-6.111 13.649-13.649 13.649s-13.649-6.111-13.649-13.649z"></path>
<path fill="none" stroke="#d59800" style="stroke: var(--color1, #d59800)" stroke-linejoin="round" stroke-linecap="round" stroke-miterlimit="4" stroke-width="2.5338" d="M17.778 18.489l-4.267-4.267 4.267-4.267"></path>
</symbol>
<symbol id="icon-down" viewBox="0 0 32 32">
<path fill="none" stroke="#71412b" style="stroke: var(--color1, #71412b)" stroke-linejoin="round" stroke-linecap="round" stroke-miterlimit="4" stroke-width="1.28" d="M22 13l-6 6-6-6"></path>
</symbol>
<symbol id="icon-up" viewBox="0 0 32 32">
<path fill="none" stroke="#71412b" style="stroke: var(--color1, #71412b)" stroke-linejoin="round" stroke-linecap="round" stroke-miterlimit="4" stroke-width="1.28" d="M22 19l-6-6-6 6"></path>
</symbol>
<symbol id="icon-left" viewBox="0 0 32 32">
<path fill="none" stroke="#fff" style="stroke: var(--color1, #fff)" stroke-linejoin="miter" stroke-linecap="butt" stroke-miterlimit="4" stroke-width="0.8889" d="M1.037 14.815c0-7.937 6.434-14.37 14.37-14.37s14.37 6.434 14.37 14.37c0 7.937-6.434 14.37-14.37 14.37s-14.37-6.434-14.37-14.37z"></path>
<path fill="none" stroke="#fff" style="stroke: var(--color1, #fff)" stroke-linejoin="round" stroke-linecap="round" stroke-miterlimit="4" stroke-width="1.963" d="M17.63 19.259l-4.444-4.444 4.444-4.444"></path>
</symbol>
<symbol id="icon-right" viewBox="0 0 32 32">
<path fill="none" stroke="#fff" style="stroke: var(--color1, #fff)" stroke-linejoin="miter" stroke-linecap="butt" stroke-miterlimit="4" stroke-width="0.8889" d="M29.778 14.815c0 7.937-6.434 14.37-14.37 14.37s-14.37-6.434-14.37-14.37c0-7.937 6.434-14.37 14.37-14.37s14.37 6.434 14.37 14.37z"></path>
<path fill="none" stroke="#fff" style="stroke: var(--color1, #fff)" stroke-linejoin="round" stroke-linecap="round" stroke-miterlimit="4" stroke-width="1.963" d="M13.185 10.371l4.444 4.444-4.444 4.444"></path>
</symbol>
<symbol fill="none" xmlns="http://www.w3.org/2000/svg" viewBox="0 0 244 141" id="Line">
<path d="M215.627 1.87161C351.232 139.185 -88.2591 16.964 19.2883 139.35" stroke="black" stroke-width="3"></path>
</symbol>
<symbol id="icon-Generic" viewBox="0 0 33 32">
<path fill="none" stroke="#fffb00" style="stroke: var(--color1, #fffb00)" stroke-linejoin="round" stroke-linecap="round" stroke-miterlimit="4" stroke-width="0.7442" d="M17.385 14.797c1.927 4.899 4.785 5.501 8.066 5.741l0.002 0.001c0.133 0.017 0.243 0.094 0.33 0.231 0.022 0.041 0.034 0.088 0.035 0.135 0.011 0.102-0.018 0.204-0.080 0.287s-0.153 0.139-0.255 0.159c-0.189 0.032-0.432 0.114-0.748 0.202l-0.039 0.012c-2.468 0.724-8.118 2.38-12.168-4.617-0.031-0.012-0.040-0.033-0.061-0.023l-2.103 0.918c-0.17 0.074-0.365 0.035-0.516-0.074-0.129-0.118-0.243-0.318-0.202-0.511 0 0 1.984-7.48 1.998-7.541s0.043-0.117 0.083-0.165c0.040-0.048 0.091-0.086 0.149-0.111s0.121-0.037 0.184-0.034c0.063 0.003 0.124 0.020 0.179 0.050l7.289 3.483c0.086 0.025 0.162 0.076 0.217 0.147s0.084 0.157 0.085 0.245c-0.001 0.225-0.158 0.444-0.328 0.518l-2.105 0.919-0.012 0.030z"></path>
</symbol>
</defs>
</svg>




